<svg viewBox="0 0 500 500" xmlns="http://www.w3.org/2000/svg">
  <g fill="none" stroke="#ffffff" stroke-linecap="round">
    <!-- Multiple overlapping hand-drawn style circles -->
    <path d="M250 50 C380 50, 450 150, 450 250 C450 350, 380 450, 250 450 C120 450, 50 350, 50 250 C50 150, 120 50, 250 50" stroke-width="1.5" opacity="0.9"/>
    <path d="M252 52 C378 55, 448 152, 447 252 C446 348, 378 447, 248 448 C122 447, 52 348, 53 248 C54 152, 122 55, 252 52" stroke-width="1.2" opacity="0.8"/>
    <path d="M248 48 C382 48, 452 148, 452 248 C452 352, 382 452, 252 452 C118 452, 48 352, 48 252 C48 148, 118 48, 248 48" stroke-width="1" opacity="0.7"/>
    <path d="M254 54 C376 58, 444 154, 445 254 C444 346, 376 444, 246 446 C124 444, 56 346, 55 246 C56 154, 124 58, 254 54" stroke-width="0.9" opacity="0.6"/>
    <path d="M246 46 C384 46, 454 146, 454 246 C454 354, 384 454, 254 454 C116 454, 46 354, 46 254 C46 146, 116 46, 246 46" stroke-width="0.8" opacity="0.5"/>
    
    <!-- More sketch lines for depth -->
    <path d="M255 56 C374 60, 442 156, 443 256 C442 344, 374 442, 244 444 C126 442, 58 344, 57 244 C58 156, 126 60, 255 56" stroke-width="0.7" opacity="0.45"/>
    <path d="M244 44 C386 44, 456 144, 456 244 C456 356, 386 456, 256 456 C114 456, 44 356, 44 256 C44 144, 114 44, 244 44" stroke-width="0.6" opacity="0.35"/>
    <path d="M256 58 C372 62, 440 158, 441 258 C440 342, 372 440, 242 442 C128 440, 60 342, 59 242 C60 158, 128 62, 256 58" stroke-width="0.6" opacity="0.3"/>
    <path d="M242 42 C388 42, 458 142, 458 242 C458 358, 388 458, 258 458 C112 458, 42 358, 42 258 C42 142, 112 42, 242 42" stroke-width="0.5" opacity="0.25"/>
  </g>
</svg>
